<?xml version="1.0" standalone="no"?>
<!DOCTYPE svg PUBLIC "-//W3C//DTD SVG 20010904//EN"
 "http://www.w3.org/TR/2001/REC-SVG-20010904/DTD/svg10.dtd">
<svg version="1.0" xmlns="http://www.w3.org/2000/svg"
 width="960.000000pt" height="960.000000pt" viewBox="0 0 960.000000 960.000000"
 preserveAspectRatio="xMidYMid meet">
<metadata>
Created by potrace 1.14, written by Peter Selinger 2001-2017
</metadata>
<g transform="translate(0.000000,960.000000) scale(0.100000,-0.100000)"
fill="#000000" stroke="none">
<path d="M4727 8683 c-2 -1 -39 -5 -83 -7 -154 -10 -299 -32 -471 -71 -13 -3
-31 -7 -41 -9 -256 -58 -482 -180 -665 -360 -35 -34 -92 -100 -173 -199 -8 -9
-14 -22 -14 -27 0 -6 -4 -10 -9 -10 -5 0 -12 -8 -15 -17 -3 -10 -17 -31 -31
-47 -14 -16 -25 -34 -25 -40 0 -6 -15 -17 -32 -25 -18 -8 -76 -35 -128 -60
-52 -25 -98 -44 -102 -43 -5 1 -8 -1 -8 -6 0 -4 -20 -16 -45 -27 -25 -11 -45
-23 -45 -27 0 -5 -6 -8 -13 -8 -10 0 -106 -54 -177 -100 -8 -6 -22 -13 -30
-17 -8 -4 -17 -9 -20 -12 -3 -3 -52 -37 -109 -76 -58 -38 -109 -75 -115 -81
-6 -6 -18 -15 -27 -20 -71 -41 -378 -311 -492 -433 -117 -124 -155 -166 -234
-266 -40 -49 -82 -101 -93 -115 -26 -32 -245 -360 -254 -380 -3 -8 -22 -42
-41 -75 -94 -160 -303 -628 -308 -687 -1 -10 -4 -18 -7 -18 -3 0 -6 -8 -7 -17
-1 -10 -13 -51 -27 -92 -14 -41 -23 -78 -20 -83 3 -4 0 -8 -7 -8 -7 0 -10 -3
-6 -6 3 -3 1 -18 -5 -33 -5 -14 -11 -35 -13 -46 -1 -11 -12 -58 -23 -105 -24
-97 -34 -148 -47 -226 -3 -22 -7 -50 -10 -64 -12 -74 -27 -203 -31 -260 -2
-36 -4 -65 -5 -65 -4 0 -9 -173 -8 -305 0 -132 5 -305 9 -305 0 0 3 -26 5 -59
4 -63 10 -115 25 -211 5 -33 12 -78 15 -100 4 -22 8 -48 11 -58 3 -10 7 -32
10 -50 2 -17 13 -68 24 -113 11 -45 21 -90 23 -100 1 -11 6 -25 10 -31 5 -7 6
-13 4 -13 -5 0 43 -163 61 -210 5 -14 10 -28 11 -32 2 -16 6 -29 15 -53 5 -11
24 -63 43 -115 41 -109 57 -145 124 -288 27 -57 49 -107 49 -111 0 -4 6 -13
13 -19 6 -7 13 -16 13 -20 5 -26 18 -52 25 -52 5 0 9 -4 9 -10 0 -8 82 -148
155 -266 99 -158 267 -375 420 -543 55 -60 255 -260 255 -255 0 2 24 -19 53
-45 28 -27 70 -63 92 -81 52 -41 101 -80 128 -104 12 -10 42 -32 67 -49 25
-17 47 -34 48 -39 2 -4 9 -8 16 -8 7 0 21 -9 31 -20 10 -11 24 -20 32 -20 7 0
13 -4 13 -10 0 -5 7 -10 15 -10 8 0 15 -4 15 -9 0 -5 14 -14 30 -21 17 -7 30
-16 30 -20 0 -4 8 -11 18 -14 21 -8 77 -40 94 -53 41 -32 335 -183 342 -176 3
4 6 1 6 -5 0 -7 5 -12 11 -12 6 0 45 -16 86 -35 41 -19 79 -35 84 -35 5 0 17
-4 27 -9 37 -19 103 -44 117 -44 8 0 15 -4 15 -9 0 -4 3 -7 8 -7 4 1 9 0 12
-1 3 -1 12 -3 20 -5 8 -2 49 -16 90 -30 120 -41 367 -106 460 -121 19 -3 44
-8 55 -11 11 -3 31 -7 45 -8 14 -2 72 -10 130 -19 99 -15 152 -21 295 -32 96
-7 452 -7 545 1 47 4 105 8 130 10 81 6 154 16 245 31 50 9 101 17 115 19 14
2 25 4 25 5 0 1 7 3 15 5 96 19 149 31 223 50 48 13 88 24 90 24 1 0 9 2 17 5
40 13 207 65 220 68 8 1 17 5 20 8 3 3 30 13 60 24 30 10 74 27 97 37 23 10
44 19 47 19 17 0 350 161 354 171 2 5 12 9 22 9 9 0 23 6 29 14 7 8 23 17 36
20 14 4 25 11 25 16 0 6 5 10 11 10 6 0 24 9 40 21 16 11 29 17 29 12 0 -4 4
-3 8 2 4 6 45 35 92 65 47 29 87 56 90 59 3 3 34 26 70 50 54 37 233 177 276
216 7 5 42 37 80 70 152 135 350 346 474 505 19 25 38 46 42 48 5 2 8 10 8 17
0 7 3 15 8 17 12 5 72 86 72 97 0 6 5 11 10 11 6 0 10 7 10 15 0 8 3 15 8 15
4 0 20 21 37 48 16 26 32 49 35 52 7 7 108 178 150 255 58 106 180 358 180
371 0 3 8 24 19 47 22 52 33 79 36 92 3 9 40 112 52 145 4 8 7 17 8 20 0 3 6
21 12 40 21 64 55 180 58 198 2 9 4 17 5 17 1 0 3 7 5 15 1 8 15 69 30 135 15
66 29 135 31 153 2 18 6 41 8 50 3 10 8 40 11 67 3 28 8 57 10 65 5 19 16 119
21 185 1 28 3 50 4 50 4 0 9 143 9 295 1 166 -1 224 -13 382 -5 60 -31 267
-41 316 -2 11 -6 35 -9 53 -13 78 -54 266 -63 289 -3 8 -8 24 -10 35 -4 22
-60 210 -70 235 -3 8 -7 20 -8 26 -5 20 -69 189 -75 194 -3 3 -7 14 -8 25 -2
11 -12 36 -23 57 -10 20 -19 44 -19 53 0 8 -4 15 -10 15 -5 0 -10 6 -10 14 0
33 -186 380 -294 546 -52 81 -186 272 -197 280 -3 3 -44 52 -90 110 -86 106
-356 385 -464 477 -33 29 -100 84 -150 123 -49 39 -98 77 -108 85 -9 8 -21 15
-26 15 -5 0 -11 3 -13 8 -4 9 -214 152 -224 152 -4 0 -15 6 -23 14 -14 12 -46
31 -136 80 -11 6 -22 14 -25 17 -3 3 -63 34 -135 69 -132 65 -175 93 -175 116
0 7 -3 14 -7 16 -5 2 -28 32 -52 67 -100 146 -236 279 -388 379 -122 80 -423
217 -518 236 -11 2 -33 9 -50 16 -16 6 -41 13 -55 15 -14 2 -35 7 -47 10 -56
13 -71 16 -118 25 -91 17 -129 21 -225 27 -114 6 -279 10 -283 6z"/>
</g>
</svg>
